<mxfile host="Electron" agent="Mozilla/5.0 (Windows NT 10.0; Win64; x64) AppleWebKit/537.36 (KHTML, like Gecko) draw.io/26.1.1 Chrome/132.0.6834.210 Electron/34.3.3 Safari/537.36" version="26.1.1">
  <diagram id="C5RBs43oDa-KdzZeNtuy" name="Page-1">
    <mxGraphModel dx="2074" dy="370" grid="1" gridSize="10" guides="1" tooltips="1" connect="1" arrows="1" fold="1" page="1" pageScale="1" pageWidth="1169" pageHeight="827" math="0" shadow="0">
      <root>
        <mxCell id="WIyWlLk6GJQsqaUBKTNV-0" />
        <mxCell id="WIyWlLk6GJQsqaUBKTNV-1" parent="WIyWlLk6GJQsqaUBKTNV-0" />
        <mxCell id="QYbwdpBH74K5H6EEjUDd-35" value="&lt;span style=&quot;font-size: 12px;&quot;&gt;Oprávnenia&lt;/span&gt;" style="rounded=0;whiteSpace=wrap;html=1;fontFamily=Helvetica;fontSize=11;labelBackgroundColor=none;fillColor=#FFC800;strokeColor=#000000;" parent="WIyWlLk6GJQsqaUBKTNV-1" vertex="1">
          <mxGeometry x="40" y="1260" width="480" height="60" as="geometry" />
        </mxCell>
        <mxCell id="QYbwdpBH74K5H6EEjUDd-50" value="spravuje" style="html=1;startArrow=diamondThin;startFill=1;startSize=10;endArrow=none;endFill=0;rounded=0;strokeColor=#000000;edgeStyle=elbowEdgeStyle;horizontal=1;verticalAlign=middle;" parent="WIyWlLk6GJQsqaUBKTNV-1" source="QYbwdpBH74K5H6EEjUDd-59" target="QYbwdpBH74K5H6EEjUDd-65" edge="1">
          <mxGeometry width="160" relative="1" as="geometry">
            <mxPoint x="260" y="1080" as="sourcePoint" />
            <mxPoint x="260" y="1140" as="targetPoint" />
          </mxGeometry>
        </mxCell>
        <mxCell id="QYbwdpBH74K5H6EEjUDd-52" value="0..*" style="edgeLabel;html=1;align=left;verticalAlign=middle;resizable=0;points=[];" parent="QYbwdpBH74K5H6EEjUDd-50" vertex="1" connectable="0">
          <mxGeometry x="0.7524" y="-1" relative="1" as="geometry">
            <mxPoint x="4" y="-1" as="offset" />
          </mxGeometry>
        </mxCell>
        <mxCell id="QYbwdpBH74K5H6EEjUDd-59" value="&lt;span style=&quot;font-size: 11px;&quot;&gt;Agenda&lt;/span&gt;" style="html=1;outlineConnect=0;whiteSpace=wrap;fillColor=#FFF323;shape=mxgraph.archimate3.application;appType=passive;archiType=square;strokeColor=#000000;" parent="WIyWlLk6GJQsqaUBKTNV-1" vertex="1">
          <mxGeometry x="40" y="1020" width="280" height="60" as="geometry" />
        </mxCell>
        <mxCell id="QYbwdpBH74K5H6EEjUDd-73" value="na správu&amp;nbsp;&lt;div&gt;využíva AIS&lt;/div&gt;" style="edgeStyle=orthogonalEdgeStyle;rounded=0;orthogonalLoop=1;jettySize=auto;html=1;endArrow=openAsync;endFill=0;horizontal=1;labelBackgroundColor=none;entryX=0;entryY=0.5;entryDx=0;entryDy=0;entryPerimeter=0;exitX=1;exitY=0.5;exitDx=0;exitDy=0;exitPerimeter=0;" parent="WIyWlLk6GJQsqaUBKTNV-1" source="QYbwdpBH74K5H6EEjUDd-59" target="QYbwdpBH74K5H6EEjUDd-71" edge="1">
          <mxGeometry relative="1" as="geometry" />
        </mxCell>
        <mxCell id="QYbwdpBH74K5H6EEjUDd-60" value="&lt;span style=&quot;font-size: 11px;&quot;&gt;OVM&lt;/span&gt;" style="html=1;outlineConnect=0;whiteSpace=wrap;fillColor=#FFF323;shape=mxgraph.archimate3.application;appType=passive;archiType=square;strokeColor=#000000;" parent="WIyWlLk6GJQsqaUBKTNV-1" vertex="1">
          <mxGeometry x="40" y="900" width="480" height="60" as="geometry" />
        </mxCell>
        <mxCell id="QYbwdpBH74K5H6EEjUDd-83" style="edgeStyle=elbowEdgeStyle;rounded=0;orthogonalLoop=1;jettySize=auto;html=1;endArrow=none;startFill=0;startArrow=openAsync;" parent="WIyWlLk6GJQsqaUBKTNV-1" source="QYbwdpBH74K5H6EEjUDd-61" target="QYbwdpBH74K5H6EEjUDd-35" edge="1">
          <mxGeometry relative="1" as="geometry" />
        </mxCell>
        <mxCell id="QYbwdpBH74K5H6EEjUDd-61" value="Činnosť Agendy" style="html=1;outlineConnect=0;whiteSpace=wrap;fillColor=#FFF323;shape=mxgraph.archimate3.application;appType=passive;archiType=square;strokeColor=#000000;" parent="WIyWlLk6GJQsqaUBKTNV-1" vertex="1">
          <mxGeometry x="40" y="1140" width="120" height="60" as="geometry" />
        </mxCell>
        <mxCell id="QYbwdpBH74K5H6EEjUDd-62" value="" style="edgeStyle=elbowEdgeStyle;html=1;endArrow=none;rounded=0;startArrow=openAsync;startFill=0;" parent="WIyWlLk6GJQsqaUBKTNV-1" source="QYbwdpBH74K5H6EEjUDd-59" target="QYbwdpBH74K5H6EEjUDd-60" edge="1">
          <mxGeometry width="160" relative="1" as="geometry">
            <mxPoint x="330" y="900" as="sourcePoint" />
            <mxPoint x="490" y="900" as="targetPoint" />
          </mxGeometry>
        </mxCell>
        <mxCell id="QYbwdpBH74K5H6EEjUDd-64" value="zodpovedá za" style="edgeLabel;html=1;align=center;verticalAlign=bottom;resizable=0;points=[];" parent="QYbwdpBH74K5H6EEjUDd-62" vertex="1" connectable="0">
          <mxGeometry x="-0.1298" y="1" relative="1" as="geometry">
            <mxPoint x="7" y="1" as="offset" />
          </mxGeometry>
        </mxCell>
        <mxCell id="QYbwdpBH74K5H6EEjUDd-65" value="Objekt evidencie" style="html=1;outlineConnect=0;whiteSpace=wrap;fillColor=#FFF323;shape=mxgraph.archimate3.application;appType=passive;archiType=square;strokeColor=#000000;" parent="WIyWlLk6GJQsqaUBKTNV-1" vertex="1">
          <mxGeometry x="200" y="1140" width="120" height="60" as="geometry" />
        </mxCell>
        <mxCell id="QYbwdpBH74K5H6EEjUDd-66" value="vykonáva" style="html=1;startArrow=diamondThin;startFill=1;startSize=10;endArrow=none;endFill=0;rounded=0;strokeColor=#000000;edgeStyle=elbowEdgeStyle;" parent="WIyWlLk6GJQsqaUBKTNV-1" source="QYbwdpBH74K5H6EEjUDd-59" target="QYbwdpBH74K5H6EEjUDd-61" edge="1">
          <mxGeometry width="160" relative="1" as="geometry">
            <mxPoint x="270" y="1090" as="sourcePoint" />
            <mxPoint x="270" y="1150" as="targetPoint" />
          </mxGeometry>
        </mxCell>
        <mxCell id="QYbwdpBH74K5H6EEjUDd-67" value="0..*" style="edgeLabel;html=1;align=left;verticalAlign=middle;resizable=0;points=[];" parent="QYbwdpBH74K5H6EEjUDd-66" vertex="1" connectable="0">
          <mxGeometry x="0.7524" y="-1" relative="1" as="geometry">
            <mxPoint x="4" y="-1" as="offset" />
          </mxGeometry>
        </mxCell>
        <mxCell id="QYbwdpBH74K5H6EEjUDd-69" value="&lt;span style=&quot;font-size: 11px;&quot;&gt;Oprávnený Subjekt&lt;/span&gt;&lt;div style=&quot;font-size: 11px;&quot;&gt;&lt;font style=&quot;font-size: 9px;&quot;&gt;(OVM, PO, FO)&lt;/font&gt;&lt;/div&gt;" style="html=1;outlineConnect=0;whiteSpace=wrap;fillColor=#FFF323;shape=mxgraph.archimate3.application;appType=passive;archiType=square;strokeColor=#000000;" parent="WIyWlLk6GJQsqaUBKTNV-1" vertex="1">
          <mxGeometry x="200" y="1380" width="120" height="60" as="geometry" />
        </mxCell>
        <mxCell id="QYbwdpBH74K5H6EEjUDd-71" value="IS VS" style="html=1;outlineConnect=0;whiteSpace=wrap;fillColor=#FFF323;shape=mxgraph.archimate3.application;appType=passive;archiType=square;strokeColor=#000000;" parent="WIyWlLk6GJQsqaUBKTNV-1" vertex="1">
          <mxGeometry x="400" y="1020" width="120" height="60" as="geometry" />
        </mxCell>
        <mxCell id="QYbwdpBH74K5H6EEjUDd-72" value="Služba" style="html=1;outlineConnect=0;whiteSpace=wrap;fillColor=#FFF323;shape=mxgraph.archimate3.application;appType=passive;archiType=square;strokeColor=#000000;" parent="WIyWlLk6GJQsqaUBKTNV-1" vertex="1">
          <mxGeometry x="400" y="1140" width="120" height="60" as="geometry" />
        </mxCell>
        <mxCell id="QYbwdpBH74K5H6EEjUDd-75" value="poskytuje" style="html=1;startArrow=diamondThin;startFill=1;startSize=10;endArrow=none;endFill=0;rounded=0;strokeColor=#000000;edgeStyle=elbowEdgeStyle;horizontal=1;verticalAlign=middle;exitX=0.5;exitY=1;exitDx=0;exitDy=0;exitPerimeter=0;entryX=0.5;entryY=0;entryDx=0;entryDy=0;entryPerimeter=0;elbow=vertical;" parent="WIyWlLk6GJQsqaUBKTNV-1" source="QYbwdpBH74K5H6EEjUDd-71" target="QYbwdpBH74K5H6EEjUDd-72" edge="1">
          <mxGeometry width="160" relative="1" as="geometry">
            <mxPoint x="270" y="1090" as="sourcePoint" />
            <mxPoint x="270" y="1190" as="targetPoint" />
          </mxGeometry>
        </mxCell>
        <mxCell id="QYbwdpBH74K5H6EEjUDd-76" value="0..*" style="edgeLabel;html=1;align=left;verticalAlign=middle;resizable=0;points=[];" parent="QYbwdpBH74K5H6EEjUDd-75" vertex="1" connectable="0">
          <mxGeometry x="0.7524" y="-1" relative="1" as="geometry">
            <mxPoint x="4" y="-1" as="offset" />
          </mxGeometry>
        </mxCell>
        <mxCell id="QYbwdpBH74K5H6EEjUDd-78" value="&lt;div&gt;používa&lt;/div&gt;" style="edgeStyle=orthogonalEdgeStyle;rounded=0;orthogonalLoop=1;jettySize=auto;html=1;endArrow=none;endFill=0;horizontal=1;labelBackgroundColor=none;startArrow=diamondThin;startFill=1;verticalAlign=bottom;" parent="WIyWlLk6GJQsqaUBKTNV-1" source="QYbwdpBH74K5H6EEjUDd-69" target="QYbwdpBH74K5H6EEjUDd-79" edge="1">
          <mxGeometry relative="1" as="geometry">
            <mxPoint x="820" y="1000" as="sourcePoint" />
          </mxGeometry>
        </mxCell>
        <mxCell id="QYbwdpBH74K5H6EEjUDd-79" value="IS" style="html=1;outlineConnect=0;whiteSpace=wrap;fillColor=#FFF323;shape=mxgraph.archimate3.application;appType=passive;archiType=square;strokeColor=#000000;" parent="WIyWlLk6GJQsqaUBKTNV-1" vertex="1">
          <mxGeometry x="400" y="1380" width="120" height="60" as="geometry" />
        </mxCell>
        <mxCell id="QYbwdpBH74K5H6EEjUDd-81" value="" style="html=1;startArrow=diamondThin;startFill=1;startSize=10;endArrow=none;endFill=0;rounded=0;strokeColor=#000000;edgeStyle=elbowEdgeStyle;entryX=0.5;entryY=0;entryDx=0;entryDy=0;entryPerimeter=0;" parent="WIyWlLk6GJQsqaUBKTNV-1" source="QYbwdpBH74K5H6EEjUDd-60" target="QYbwdpBH74K5H6EEjUDd-71" edge="1">
          <mxGeometry width="160" relative="1" as="geometry">
            <mxPoint x="459.86" y="920" as="sourcePoint" />
            <mxPoint x="459.86" y="1020" as="targetPoint" />
          </mxGeometry>
        </mxCell>
        <mxCell id="QYbwdpBH74K5H6EEjUDd-84" style="edgeStyle=elbowEdgeStyle;rounded=0;orthogonalLoop=1;jettySize=auto;html=1;endArrow=none;startFill=0;startArrow=openAsync;exitX=0.5;exitY=1;exitDx=0;exitDy=0;exitPerimeter=0;" parent="WIyWlLk6GJQsqaUBKTNV-1" source="QYbwdpBH74K5H6EEjUDd-65" target="QYbwdpBH74K5H6EEjUDd-35" edge="1">
          <mxGeometry relative="1" as="geometry">
            <mxPoint x="110" y="1210" as="sourcePoint" />
            <mxPoint x="110" y="1290" as="targetPoint" />
          </mxGeometry>
        </mxCell>
        <mxCell id="QYbwdpBH74K5H6EEjUDd-85" style="edgeStyle=elbowEdgeStyle;rounded=0;orthogonalLoop=1;jettySize=auto;html=1;endArrow=none;startFill=0;startArrow=openAsync;exitX=0.5;exitY=1;exitDx=0;exitDy=0;exitPerimeter=0;" parent="WIyWlLk6GJQsqaUBKTNV-1" source="QYbwdpBH74K5H6EEjUDd-72" target="QYbwdpBH74K5H6EEjUDd-35" edge="1">
          <mxGeometry relative="1" as="geometry">
            <mxPoint x="270" y="1210" as="sourcePoint" />
            <mxPoint x="270" y="1290" as="targetPoint" />
          </mxGeometry>
        </mxCell>
        <mxCell id="QYbwdpBH74K5H6EEjUDd-86" style="edgeStyle=elbowEdgeStyle;rounded=0;orthogonalLoop=1;jettySize=auto;html=1;endArrow=none;startFill=0;startArrow=openAsync;" parent="WIyWlLk6GJQsqaUBKTNV-1" source="QYbwdpBH74K5H6EEjUDd-69" target="QYbwdpBH74K5H6EEjUDd-35" edge="1">
          <mxGeometry relative="1" as="geometry">
            <mxPoint x="270" y="1210" as="sourcePoint" />
            <mxPoint x="270" y="1290" as="targetPoint" />
          </mxGeometry>
        </mxCell>
        <mxCell id="QYbwdpBH74K5H6EEjUDd-87" value="&lt;span style=&quot;font-size: 11px;&quot;&gt;Dotknutá osoba&lt;/span&gt;" style="html=1;outlineConnect=0;whiteSpace=wrap;fillColor=#FFF323;shape=mxgraph.archimate3.application;appType=passive;archiType=square;strokeColor=#000000;" parent="WIyWlLk6GJQsqaUBKTNV-1" vertex="1">
          <mxGeometry x="40" y="1380" width="120" height="60" as="geometry" />
        </mxCell>
        <mxCell id="QYbwdpBH74K5H6EEjUDd-88" style="edgeStyle=elbowEdgeStyle;rounded=0;orthogonalLoop=1;jettySize=auto;html=1;endArrow=none;startFill=0;startArrow=openAsync;" parent="WIyWlLk6GJQsqaUBKTNV-1" source="QYbwdpBH74K5H6EEjUDd-87" target="QYbwdpBH74K5H6EEjUDd-35" edge="1">
          <mxGeometry relative="1" as="geometry">
            <mxPoint x="110" y="1210" as="sourcePoint" />
            <mxPoint x="110" y="1270" as="targetPoint" />
          </mxGeometry>
        </mxCell>
        <mxCell id="QYbwdpBH74K5H6EEjUDd-89" value="0..*" style="edgeLabel;html=1;align=center;verticalAlign=top;resizable=0;points=[];fontFamily=Helvetica;fontSize=11;fontColor=default;labelBackgroundColor=none;" parent="QYbwdpBH74K5H6EEjUDd-88" vertex="1" connectable="0">
          <mxGeometry x="-0.631" relative="1" as="geometry">
            <mxPoint x="12" y="-9" as="offset" />
          </mxGeometry>
        </mxCell>
      </root>
    </mxGraphModel>
  </diagram>
</mxfile>
